PathFileType	4	(X/Y/Z)	1H_nor_slow_right.trc
DataRate	CameraRate	NumFrames	NumMarkers	Units	OrigDataRate	OrigDataStartFrame	OrigNumFrames
250.00	250.00	15	18	mm	250.00	12736	25471
Frame#	Time	c7	r_should	l_should	clavicle	r_upa	r_elb_l	r_elb_m	r_low	r_wri_l	r_wri_m	r_met	l_upa	l_elb_l	l_elb_m	l_low	l_wri_l	l_wri_m	l_met
	X1	Y1	Z1	X2	Y2	Z2	X3	Y3	Z3	X4	Y4	Z4	X5	Y5	Z5	X6	Y6	Z6	X7	Y7	Z7	X8	Y8	Z8	X9	Y9	Z9	X10	Y10	Z10	X11	Y11	Z11	X12	Y12	Z12	X13	Y13	Z13	X14	Y14	Z14	X15	Y15	Z15	X16	Y16	Z16	X17	Y17	Z17	X18	Y18	Z18
12736	50.94000	1186.62695	1428.95105	160.92033	1268.18713	1369.78711	307.73315	1168.08337	1356.49731	-11.37702	1292.47070	1288.98108	132.77954	1312.85095	1171.10181	382.81726	1312.16919	1119.10388	404.97531	1238.48340	1063.61145	385.68423	1360.69080	1086.20667	315.29837	1391.05750	1082.52856	209.09450	1380.51685	1005.95319	223.46858	1454.01025	1056.97705	168.93816	1154.31311	1143.65002	-71.00684	1163.58093	1038.56738	-87.62009	1130.16821	1026.85571	1.26098	1201.04980	925.91193	-73.63182	1253.88245	820.48077	-27.48338	1180.29517	801.00751	-46.30837	1255.31714	737.44080	-66.80421
12737	50.94400	1186.59717	1428.94922	160.92236	1267.66357	1370.08350	307.67661	1168.09631	1356.48340	-11.36819	1292.44800	1288.97827	132.82616	1312.79822	1171.15479	382.89291	1312.11829	1119.19568	405.04761	1238.45801	1063.66077	385.71579	1360.63879	1086.44153	315.33826	1390.93604	1082.95447	209.13855	1380.44446	1006.37592	223.41101	1453.90503	1057.47375	168.90460	1154.31470	1143.63574	-70.99335	1163.55701	1038.56116	-87.61522	1130.11572	1026.85571	1.26210	1201.01184	925.88440	-73.61186	1253.79224	820.44647	-27.45122	1179.56543	801.35651	-46.73551	1255.21460	737.40625	-66.79064
12738	50.94800	1186.56543	1428.94958	160.92184	1267.02441	1370.45227	307.59375	1168.10413	1356.47266	-11.35776	1292.42371	1288.97424	132.86746	1312.74622	1171.20642	382.96338	1312.07043	1119.29419	405.11423	1238.43555	1063.70471	385.75165	1360.58057	1086.68494	315.37372	1390.80945	1083.37537	209.17596	1380.38611	1006.80066	223.36615	1453.79382	1057.97449	168.86655	1154.31433	1143.62268	-70.97871	1163.53967	1038.54700	-87.60929	1130.05603	1026.85901	1.27076	1200.96411	925.85956	-73.59714	1253.69092	820.40533	-27.42982	1179.32263	801.42786	-46.84683	1255.10754	737.37054	-66.78019
12739	50.95200	1186.53296	1428.95227	160.92380	1267.24939	1370.29346	307.67667	1168.11194	1356.46301	-11.34741	1292.40002	1288.97046	132.90559	1312.69128	1171.26477	383.02646	1312.03210	1119.39624	405.17245	1238.41431	1063.74121	385.77557	1360.52490	1086.93213	315.39517	1390.69250	1083.79199	209.21135	1380.33264	1007.22516	223.29420	1453.67493	1058.50464	168.82011	1154.31885	1143.61597	-70.96959	1163.51819	1038.54285	-87.59875	1130.00269	1026.85986	1.26896	1200.91699	925.83051	-73.57359	1253.58862	820.35956	-27.40969	1179.19910	801.43292	-46.86501	1254.99805	737.33521	-66.77341
12740	50.95600	1186.50220	1428.96118	160.93097	1266.35645	1370.82031	307.55103	1168.12231	1356.45728	-11.32970	1292.37329	1288.97131	132.94228	1312.63904	1171.32397	383.08194	1311.98840	1119.50305	405.21826	1238.38721	1063.77502	385.80222	1360.47473	1087.18286	315.42392	1390.57153	1084.22058	209.25053	1380.28271	1007.60999	223.20114	1453.55823	1059.04395	168.77258	1154.32629	1143.60742	-70.95834	1163.50964	1038.53198	-87.57899	1129.96167	1026.86438	1.26702	1200.86743	925.81152	-73.55784	1253.49280	820.31274	-27.38289	1179.10315	801.41876	-46.85787	1254.89307	737.30713	-66.76405
12741	50.96000	1186.47070	1428.97253	160.93951	1266.07898	1370.97144	307.54102	1168.13013	1356.45227	-11.31964	1292.34766	1288.97339	132.97990	1312.59290	1171.37512	383.12595	1311.94299	1119.61548	405.26212	1238.36572	1063.81445	385.83203	1360.42786	1087.43372	315.46127	1390.43884	1084.64673	209.28633	1380.26648	1007.96545	223.14650	1453.44739	1059.56555	168.72610	1154.34082	1143.60266	-70.94522	1163.50366	1038.52527	-87.55289	1129.92493	1026.86694	1.26244	1200.82336	925.79749	-73.54420	1253.40076	820.26978	-27.36176	1179.01990	801.40344	-46.85874	1254.79407	737.27673	-66.74813
12742	50.96400	1186.43835	1428.97852	160.95259	1267.07361	1370.18713	307.51517	1168.14026	1356.44629	-11.30302	1292.32068	1288.97595	133.01901	1312.55054	1171.42017	383.15680	1311.90112	1119.71667	405.31396	1238.33850	1063.85583	385.86569	1360.38013	1087.67017	315.50079	1390.29883	1085.07849	209.31339	1380.23267	1008.33130	223.08479	1453.34656	1060.06384	168.67850	1153.90820	1144.03772	-71.30833	1163.50208	1038.52417	-87.53344	1129.88965	1026.85120	1.26068	1200.78857	925.77777	-73.51861	1253.31177	820.22894	-27.33762	1178.94202	801.39709	-46.86116	1254.69385	737.24414	-66.73375
12743	50.96800	1186.40369	1428.98145	160.97035	1269.50647	1368.32178	307.45123	1168.15149	1356.44031	-11.28469	1292.29797	1288.97583	133.06886	1312.51282	1171.45874	383.19138	1311.86609	1119.81812	405.37082	1238.31323	1063.90088	385.90115	1360.33179	1087.89966	315.54608	1390.15979	1085.50281	209.33920	1380.18042	1008.73828	223.01489	1453.24292	1060.58203	168.64816	1152.90894	1145.01245	-72.14825	1163.50464	1038.52344	-87.51623	1129.86890	1026.84021	1.27133	1200.75891	925.75403	-73.49436	1253.22937	820.19110	-27.30996	1178.86206	801.39105	-46.85716	1254.59216	737.20935	-66.71260
12744	50.97200	1186.37000	1428.98840	160.99132	1270.04834	1367.86658	307.46341	1168.16052	1356.43530	-11.27286	1292.27332	1288.97510	133.12199	1312.47168	1171.49609	383.22705	1311.82178	1119.92139	405.42661	1238.27942	1063.94373	385.94083	1360.28149	1088.12720	315.58383	1390.02637	1085.90088	209.36998	1380.14392	1009.15839	222.96402	1453.12402	1061.10510	168.61960	1153.13318	1144.81860	-71.95473	1163.51172	1038.52246	-87.48824	1129.83826	1026.84473	1.27260	1200.72546	925.73450	-73.46562	1253.14832	820.15356	-27.27056	1178.78589	801.37634	-46.84047	1254.48682	737.17126	-66.69455
12745	50.97600	1186.33496	1428.99585	161.01155	1270.11035	1367.76257	307.48462	1168.16895	1356.43079	-11.26092	1292.24695	1288.97351	133.17084	1312.42651	1171.53418	383.26376	1311.78540	1120.02185	405.48810	1238.23877	1063.98352	385.97931	1360.22803	1088.35510	315.60938	1389.90198	1086.29700	209.40692	1380.11218	1009.56915	222.92635	1453.00513	1061.63477	168.58533	1154.11829	1143.89331	-71.11932	1163.52063	1038.51318	-87.45689	1129.80200	1026.84888	1.27254	1200.68530	925.71484	-73.44273	1253.06702	820.11859	-27.24066	1178.70581	801.36230	-46.82101	1254.38501	737.12762	-66.66949
12746	50.98000	1186.30164	1429.00171	161.02715	1270.07532	1367.73547	307.50836	1168.17603	1356.42456	-11.25375	1292.22375	1288.96899	133.22176	1312.38489	1171.56750	383.29016	1311.74036	1120.12744	405.53415	1238.20593	1064.01318	386.00784	1360.16846	1088.59253	315.62766	1389.77869	1086.71692	209.44691	1380.07764	1009.95709	222.87595	1452.90930	1062.15710	168.54324	1154.38562	1143.65588	-70.89818	1163.52344	1038.50793	-87.44235	1129.78162	1026.84155	1.27211	1200.65540	925.68988	-73.42491	1252.98999	820.08881	-27.21847	1178.62769	801.34155	-46.80508	1254.28479	737.08380	-66.64866
12747	50.98400	1186.26489	1429.00537	161.03954	1270.00256	1367.73730	307.53406	1168.18091	1356.41943	-11.24703	1292.19897	1288.96997	133.27187	1312.34473	1171.60059	383.31055	1311.69348	1120.22925	405.57568	1238.17383	1064.03748	386.02475	1360.10486	1088.83264	315.64572	1389.65039	1087.13147	209.48137	1380.03625	1010.32233	222.80348	1452.81909	1062.66809	168.50533	1154.47168	1143.58923	-70.82790	1163.52893	1038.49792	-87.42303	1129.74951	1026.83643	1.27136	1200.62854	925.66541	-73.40617	1252.91113	820.04974	-27.19894	1178.55212	801.32068	-46.80472	1254.18323	737.03540	-66.63102
12748	50.98800	1186.22827	1429.00732	161.05249	1269.90601	1367.75281	307.55939	1168.18237	1356.41223	-11.23939	1292.17236	1288.97449	133.30939	1312.30737	1171.63367	383.32648	1311.64294	1120.33801	405.62280	1238.13013	1064.06506	386.04385	1360.03723	1089.07690	315.66379	1389.49597	1087.54114	209.50014	1380.01184	1010.69116	222.73553	1452.71143	1063.18335	168.47475	1154.50281	1143.57031	-70.79744	1163.53479	1038.48254	-87.40133	1129.71240	1026.82520	1.27024	1200.58508	925.64655	-73.38361	1252.83618	820.01117	-27.18094	1178.47705	801.29321	-46.80018	1254.08105	736.99420	-66.62034
12749	50.99200	1186.18896	1429.00732	161.06018	1269.82422	1367.76074	307.59073	1168.18359	1356.40552	-11.22674	1292.14331	1288.97632	133.34715	1312.27222	1171.66052	383.34918	1311.59326	1120.43896	405.66306	1238.08557	1064.09265	386.06131	1359.96558	1089.31104	315.67700	1389.34387	1087.94861	209.50858	1379.98169	1011.09467	222.67801	1452.59143	1063.71753	168.42917	1154.51794	1143.56335	-70.77890	1163.53015	1038.47449	-87.39278	1129.68701	1026.81458	1.27137	1200.54407	925.62378	-73.36185	1252.75183	819.97089	-27.17049	1178.40186	801.26843	-46.79321	1253.97461	736.95673	-66.60992
12750	50.99600	1186.15002	1429.00879	161.06544	1269.73816	1367.77747	307.61835	1168.18396	1356.40210	-11.20953	1292.11401	1288.97827	133.38660	1312.22766	1171.69043	383.37863	1311.54871	1120.53638	405.70554	1238.04285	1064.11731	386.07623	1359.89624	1089.53662	315.68372	1389.21667	1088.36304	209.52946	1379.94031	1011.51465	222.61342	1452.47327	1064.26550	168.38661	1154.52673	1143.55896	-70.76173	1163.52673	1038.46887	-87.37520	1129.66785	1026.80579	1.27990	1199.89697	926.30231	-73.86605	1252.66699	819.93146	-27.15532	1178.33105	801.24194	-46.79112	1253.87256	736.91895	-66.60333
